<svg width="307" height="677" viewBox="0 0 307 677" fill="none" xmlns="http://www.w3.org/2000/svg">
<path d="M213.332 68.3669L203.122 73.6078L193.61 69.7164L190.829 60.4758L196.388 49.4171L205.859 48.4718L207.688 50.4261L208.257 47.989L194.036 40.5326L196.246 36.1768L209.948 41.451L215.512 34.1467L218.917 32.1021L225.445 13.2249L233.985 16.8525L225.511 35.0752L229.219 39.0356L248.911 32.796L251.588 41.151L231.181 45.202L228.592 49.7642L222.212 54.5508L228.853 71.008L224.456 73.0282L215.481 55.7065L213.202 56.316L215.389 58.6516L213.332 68.3669Z" fill="#EB7333"/>
<path d="M207.688 50.4261L213.202 56.316M207.688 50.4261L208.257 47.989L194.036 40.5326L196.246 36.1768L209.948 41.451L215.512 34.1467L218.917 32.1021L225.445 13.2249L233.985 16.8525L225.511 35.0752L229.219 39.0356L248.911 32.796L251.588 41.151L231.181 45.202L228.592 49.7642L222.212 54.5508L228.853 71.008L224.456 73.0282L215.481 55.7065L213.202 56.316M207.688 50.4261L205.859 48.4718L196.388 49.4171L190.829 60.4758L193.61 69.7164L203.122 73.6078L213.332 68.3669L215.389 58.6516L213.202 56.316" stroke="#140100" stroke-width="2.95235"/>
<path d="M133.753 141.731L138.179 119.905L182.716 111.057L208.082 165.918L202.773 170.342L206.312 173.587V198.658L198.348 212.521V253.52L189.5 272.102L191.564 281.245L180.356 298.058L177.701 322.244L180.356 331.093L222.829 396.278L229.908 481.814L236.397 485.944V511.015L225.779 526.647L197.463 649.053L238.757 672.945H165.018L171.507 660.852L169.443 584.753L174.457 570.006L165.018 544.935V529.007L188.32 494.497L174.457 478.865L150.566 514.849L154.105 523.403L141.717 546.409L123.43 557.028L44.0871 651.708L68.8633 672.945H2.20312L59.4243 570.006L61.1947 543.46L80.6617 518.094L106.913 511.015V496.267L92.4598 465.592L97.1791 419.284L70.0439 396.278V356.164L83.9068 331.093L80.3673 329.028L72.403 278.591L89.5111 188.04L126.97 141.731H133.753Z" fill="#EB7333"/>
<path d="M180.925 332.775L177.678 320.655L180.502 296.974L190.801 281.225L189.934 272.287L198.042 254.068L198.586 211.039L206.447 198.651L206.223 172.785L194.379 160.298L189.164 149.641L185.399 126.791L159.719 111.043L137.039 119.804L133.542 140.686L126.877 142.471L88.802 188.588L81.5739 227.202L72.0809 280.178L80.8201 331.647" stroke="#170800" stroke-width="2.95235"/>
<path d="M180.36 330.568L223.169 396.996L229.073 481.138L236.454 486.305L236.454 509.924L226.859 526.162L197.336 648.684L240.883 674.517L164.86 673.041L170.764 661.232L169.288 585.947L174.455 571.185L164.86 546.828L164.86 529.114L188.479 494.424L174.455 478.186M174.455 478.186L150.836 514.352L153.788 522.471L141.241 546.828L124.265 556.423L43.8134 650.898L71.1226 673.041L2.48047 673.041L59.3133 568.233L61.5275 543.138L79.9797 517.305L106.551 509.924L106.551 496.638L92.5272 465.638L96.9557 419.877L69.6465 396.996L69.6465 357.14L83.6702 330.568L79.2416 330.568M174.455 478.186L188.479 419.877L150.836 371.158" stroke="#170800" stroke-width="2.95235"/>
<path d="M198.911 112.311L174.335 94.6539L159.386 99.7506L153.203 86.0608L154.796 70.6186L135.256 46.5832C136.304 40.0652 126.414 32.9595 111.093 34.676C80.4527 38.109 69.3466 72.5423 73.1952 87.4251L89.979 99.4836L83.5948 112.165L93.7849 119.486L87.325 128.477L95.1175 134.076L92.1785 141.961L100.006 134.861L97.2883 124.729L99.8723 121.133L100.489 115.214L105.884 119.09L105.174 127.668L111.674 135.065L114.462 119.8L111.558 114.987L118.844 117.496L113.676 124.689L117.273 127.273L118.454 134.483L125.345 124.892L121.149 121.878L126.317 114.685L118.449 105.397L120.171 102.999L129.762 109.889L135.215 123.804L198.911 112.311Z" fill="#EB7333" stroke="#170800" stroke-width="2.95235"/>
<path d="M185.196 77.0124L159.514 55.8345L149.231 51.1728L154.399 43.9798L148.498 37.0136L129.677 48.0301L132.563 59.1922L124.829 63.6325L126.348 72.9033L122.228 73.5783L146.804 91.2354L156.243 90.7466L157.5 101.647L175.535 95.5188L174.328 91.155L164.133 94.4818L161.781 93.1251L159.81 86.8358L161.339 82.8902L172.254 83.5161L172.143 81.2665L185.196 77.0124Z" fill="#EB7333" stroke="#170800" stroke-width="2.95235"/>
<path d="M181.03 110.945L196.058 113.862L197.419 115.025L208.022 103.798L232.827 100.879L249.607 106.278L253.328 105.771L255.138 100.879L250.702 88.8984L249.607 73.4477V64.1093L247.126 54.3331L244.938 43.0977L240.269 42.0763L227.72 35.0725L224.656 28.0679L216.922 22.8158V16.6874H223.78L222.029 13.3314L226.99 11.1427L229.763 12.0182L230.784 5.598L235.307 6.47348L238.08 1.94922L255.589 11.1427L268.868 21.5027L271.202 28.0679L267.7 39.5938L272.078 45.4309L296.299 84.0975L304.616 109.924L283.897 131.52L236.475 151.947L231.514 160.994L207.73 166.539L183.654 182.443L167.166 179.379L142.945 155.595L150.679 127.58L181.03 110.945Z" fill="#EB7333"/>
<path d="M212.109 127.58L197.419 115.025M197.419 115.025L196.058 113.862L181.03 110.945L150.679 127.58L142.945 155.595L167.166 179.379L183.654 182.443L207.73 166.539L231.514 160.994L236.475 151.947L283.897 131.52L304.616 109.924L296.299 84.0976L272.078 45.4309L267.7 39.5938L271.202 28.0679L268.868 21.5027L255.589 11.1427L238.08 1.94922L235.307 6.47348L230.784 5.598L229.763 12.0182L226.99 11.1427L222.029 13.3314L223.78 16.6874H216.922V22.8158L224.656 28.0679L227.72 35.0725L240.269 42.0763L244.938 43.0977L247.126 54.3331L249.607 64.1093V73.4477L250.702 88.8984L255.138 100.879L253.328 105.771M197.419 115.025L208.022 103.798L232.827 100.879L249.607 106.278L253.328 105.771M253.328 105.771L262.598 106.804" stroke="#170800" stroke-width="2.95235"/>
</svg>
